<svg width="16" height="16" viewBox="0 0 16 16" fill="none" xmlns="http://www.w3.org/2000/svg">
<path d="M8 9.26873L1.51867 15.746C1.3531 15.9154 1.12361 16.0073 0.887364 15.9995C0.529116 15.9966 0.207652 15.7799 0.0701578 15.4499C-0.0683006 15.119 0.00431808 14.7387 0.254125 14.4823L6.73546 8.00498L0.254125 1.52768C0.0846829 1.36221 -0.00730446 1.13287 0.000453913 0.896768C-0.00535544 0.659696 0.0866287 0.431333 0.254125 0.263926C0.421622 0.0965189 0.650149 0.0045913 0.887362 0.0104126C1.12361 0.00267149 1.35309 0.0945966 1.51866 0.263926L8 6.74123L14.4813 0.263926C14.735 0.00652333 15.1204 -0.0708879 15.4544 0.0684628C15.7875 0.207804 16.0034 0.534864 15.9995 0.896778C16.0073 1.13288 15.9153 1.36221 15.7459 1.52769L9.26454 8.00499L15.7459 14.4823C16.0751 14.8345 16.0664 15.3841 15.7246 15.7247C15.3838 16.0663 14.8338 16.075 14.4814 15.746L8 9.26873Z" fill="#FFFFFF"/>
</svg>
